HIERARCHY
ROOT Hips
{
	OFFSET 0.000000 0.000000 0.000000
	CHANNELS 6 Xposition Yposition Zposition Yrotation Xrotation Zrotation
	JOINT Chest
	{
		OFFSET 0.000000 -0.009281 11.569106
		CHANNELS 3 Yrotation Xrotation Zrotation
		JOINT Chest2
		{
			OFFSET -0.000000 0.016865 9.269641
			CHANNELS 3 Yrotation Xrotation Zrotation
			JOINT Chest3
			{
				OFFSET -0.000000 0.000001 8.374491
				CHANNELS 3 Yrotation Xrotation Zrotation
				JOINT Chest4
				{
					OFFSET -0.000000 0.000001 8.374493
					CHANNELS 3 Yrotation Xrotation Zrotation
					JOINT Neck
					{
						OFFSET -0.000000 0.000002 12.152554
						CHANNELS 3 Yrotation Xrotation Zrotation
						JOINT Head
						{
							OFFSET -0.000000 0.040101 7.802319
							CHANNELS 3 Yrotation Xrotation Zrotation
							End Site
							{
								OFFSET -0.000000 0.020947 14.853096
							}
						}
					}
					JOINT RightCollar
					{
						OFFSET 2.894404 0.000001 6.791374
						CHANNELS 3 Yrotation Xrotation Zrotation
						JOINT RightShoulder
						{
							OFFSET 13.574684 0.000001 0.000000
							CHANNELS 3 Yrotation Xrotation Zrotation
							JOINT RightElbow
							{
								OFFSET 23.923903 0.000002 0.000000
								CHANNELS 3 Yrotation Xrotation Zrotation
								JOINT RightWrist
								{
									OFFSET 19.846718 0.012767 0.000000
									CHANNELS 3 Yrotation Xrotation Zrotation
									End Site
									{
										OFFSET 14.973145 0.000001 0.000000
									}
								}
							}
						}
					}
					JOINT LeftCollar
					{
						OFFSET -2.894404 0.000001 6.791374
						CHANNELS 3 Yrotation Xrotation Zrotation
						JOINT LeftShoulder
						{
							OFFSET -13.574684 -0.000001 0.000000
							CHANNELS 3 Yrotation Xrotation Zrotation
							JOINT LeftElbow
							{
								OFFSET -23.923903 -0.000002 0.000000
								CHANNELS 3 Yrotation Xrotation Zrotation
								JOINT LeftWrist
								{
									OFFSET -19.846718 0.012763 0.000000
									CHANNELS 3 Yrotation Xrotation Zrotation
									End Site
									{
										OFFSET -14.973145 -0.000001 0.000000
									}
								}
							}
						}
					}
				}
			}
		}
	}
	JOINT RightHip
	{
		OFFSET 9.469263 0.004643 0.045487
		CHANNELS 3 Yrotation Xrotation Zrotation
		JOINT RightKnee
		{
			OFFSET 0.000000 0.002661 -40.478676
			CHANNELS 3 Yrotation Xrotation Zrotation
			JOINT RightAnkle
			{
				OFFSET 0.000000 0.049106 -35.224068
				CHANNELS 3 Yrotation Xrotation Zrotation
				JOINT RightToe
				{
					OFFSET -0.000001 12.539529 -6.151390
					CHANNELS 3 Yrotation Xrotation Zrotation
					End Site
					{
						OFFSET -0.000001 5.044994 -1.291870
					}
				}
			}
		}
	}
	JOINT LeftHip
	{
		OFFSET -9.469263 0.004641 0.045487
		CHANNELS 3 Yrotation Xrotation Zrotation
		JOINT LeftKnee
		{
			OFFSET 0.000000 0.002661 -40.478676
			CHANNELS 3 Yrotation Xrotation Zrotation
			JOINT LeftAnkle
			{
				OFFSET 0.000000 0.049106 -35.224068
				CHANNELS 3 Yrotation Xrotation Zrotation
				JOINT LeftToe
				{
					OFFSET -0.000001 12.539529 -6.151390
					CHANNELS 3 Yrotation Xrotation Zrotation
					End Site
					{
						OFFSET -0.000001 5.044994 -1.291870
					}
				}
			}
		}
	}
}
MOTION
Frames: 16
Frame Time: 0.016667
12.215668 5.521872 82.901276 -5.468501 -1.503983 -106.868022 10.424025 -0.399915 -4.959770 4.626154 -0.285363 -2.198295 4.626150 -0.285363 -2.198298 3.468636 -0.230682 -1.646672 -6.601988 -17.273069 18.009971 -6.128385 3.755566 30.987335 6.547541 4.950629 -6.296801 66.539088 38.460655 21.344611 56.050660 39.779534 70.273276 14.749744 35.651709 23.747478 -6.970986 -0.156534 -10.860798 -76.261610 43.938631 -66.032343 -47.579146 41.039257 -61.840198 45.824354 51.113167 5.940014 -2.954733 -10.696745 2.256610 -0.321399 -1.651776 0.143576 2.057584 6.442965 -2.470607 0.030704 -0.006851 -0.007978 -3.853207 -11.004773 1.898575 0.379982 0.142830 3.388470 0.736869 4.483398 -0.518705 0.027910 0.005772 0.008140 
12.230296 5.533186 82.902512 -5.476803 -1.492196 -106.777112 10.432571 -0.410520 -4.977686 4.630566 -0.290522 -2.207619 4.630566 -0.290521 -2.207622 3.471923 -0.234638 -1.653626 -6.589639 -17.261075 18.003443 -6.105669 3.775747 30.980543 6.504677 4.984770 -6.273107 66.651588 38.704466 21.778873 56.197082 40.420534 70.408090 14.970328 36.238381 24.389613 -6.988840 -0.113986 -10.829828 -76.317631 43.823190 -66.050197 -47.607535 40.971921 -61.951325 45.619465 51.254549 5.840982 -2.970802 -10.707092 2.231392 -0.303254 -1.684751 0.128763 2.037111 6.460369 -2.504746 0.038644 0.004715 -0.007187 -3.856809 -11.001737 1.878507 0.372321 0.123278 3.352781 0.734777 4.481239 -0.541435 0.034474 0.007739 0.008227 
12.242068 5.543439 82.904335 -5.480045 -1.484987 -106.711884 10.432902 -0.419449 -4.993579 4.631498 -0.295154 -2.216531 4.631499 -0.295154 -2.216530 3.472601 -0.238184 -1.660269 -6.573726 -17.252612 17.999741 -6.076263 3.788465 30.979911 6.467086 5.038858 -6.278070 66.793554 38.907657 22.265023 56.256966 41.274048 70.259089 15.034727 36.816820 24.850504 -7.008526 -0.079144 -10.824115 -76.332890 43.776202 -66.032794 -47.653704 40.896833 -62.052255 45.231698 51.355946 5.634947 -2.980944 -10.705452 2.238560 -0.284385 -1.724501 0.101803 2.015383 6.476291 -2.558250 0.042488 0.015405 -0.007866 -3.858481 -10.992956 1.869867 0.366008 0.099020 3.332457 0.730609 4.483466 -0.566580 0.039388 0.008705 0.008883 
12.252355 5.548627 82.906113 -5.480545 -1.483760 -106.676913 10.432547 -0.423972 -5.011055 4.632242 -0.297691 -2.225300 4.632241 -0.297690 -2.225295 3.473146 -0.240156 -1.666825 -6.567533 -17.253601 18.000045 -6.065102 3.785403 30.982524 6.434093 5.102950 -6.294564 66.938347 39.032537 22.675794 56.215995 42.153636 69.936158 14.741546 37.555583 25.127916 -7.029218 -0.063555 -10.811637 -76.323484 43.769611 -66.001081 -47.658994 40.837882 -62.096549 44.674850 51.397228 5.302640 -2.990713 -10.699237 2.244759 -0.267637 -1.758531 0.078505 2.000345 6.486145 -2.557810 0.044059 0.023042 -0.007256 -3.855863 -10.988268 1.877509 0.360103 0.080898 3.306549 0.726025 4.487131 -0.572481 0.041511 0.008324 0.008767 
12.259558 5.550425 82.906868 -5.476292 -1.486222 -106.677972 10.433782 -0.423825 -5.029518 4.633251 -0.298403 -2.234305 4.633253 -0.298403 -2.234303 3.473895 -0.240763 -1.673573 -6.578643 -17.264739 18.004348 -6.086101 3.766767 30.985710 6.442021 5.163721 -6.251849 67.006478 39.124457 22.928055 56.001845 42.940655 69.443380 13.945791 38.380400 25.168211 -7.052658 -0.051230 -10.775126 -76.308472 43.793742 -65.951781 -47.651972 40.779802 -62.113617 44.190190 51.424156 4.978037 -2.994075 -10.685430 2.257691 -0.253186 -1.788194 0.068413 1.984863 6.493153 -2.563596 0.041552 0.026011 -0.008438 -3.849095 -10.981840 1.892088 0.350002 0.063568 3.280981 0.725752 4.496597 -0.561928 0.040013 0.005175 0.010042 
12.264639 5.545983 82.906570 -5.468226 -1.494579 -106.713776 10.436100 -0.423483 -5.042972 4.634165 -0.298592 -2.240382 4.634164 -0.298590 -2.240383 3.474580 -0.240954 -1.678130 -6.602479 -17.288401 18.006672 -6.133243 3.727997 30.979832 6.472769 5.229064 -6.209651 67.023191 39.123201 23.066736 55.557753 43.566006 68.707318 12.468024 39.418736 25.044209 -7.077015 -0.038899 -10.754016 -76.296860 43.857529 -65.890883 -47.676807 40.726113 -62.156190 43.920999 51.418170 4.751268 -2.989060 -10.667268 2.279400 -0.255332 -1.807975 0.075342 1.981850 6.492129 -2.548485 0.036444 0.026289 -0.008518 -3.836626 -10.977400 1.910797 0.336741 0.049423 3.277417 0.728355 4.513711 -0.545796 0.034932 -0.001638 0.010862 
12.270660 5.536599 82.906158 -5.465358 -1.507846 -106.785821 10.435434 -0.429879 -5.049513 4.633447 -0.301397 -2.241709 4.633447 -0.301397 -2.241713 3.474027 -0.243064 -1.679105 -6.629279 -17.321355 18.003807 -6.189148 3.673353 30.962620 6.508172 5.331614 -6.206851 66.951092 39.003017 23.036343 54.954637 43.962735 67.771746 10.012807 40.780191 24.607450 -7.089413 -0.034031 -10.746780 -76.289067 43.944740 -65.822287 -47.753114 40.671615 -62.234088 43.864103 51.338670 4.564741 -2.978433 -10.660622 2.296052 -0.266268 -1.810554 0.085339 1.985070 6.484537 -2.500324 0.029164 0.022274 -0.007706 -3.827159 -10.983190 1.929241 0.327717 0.034603 3.290580 0.732257 4.536927 -0.509914 0.026555 -0.006712 0.010078 
12.277347 5.522948 82.905991 -5.463368 -1.525114 -106.887905 10.434181 -0.440855 -5.046910 4.632669 -0.306529 -2.238335 4.632669 -0.306529 -2.238333 3.473429 -0.246886 -1.676537 -6.657950 -17.358415 17.995590 -6.250885 3.612147 30.934610 6.565609 5.398143 -6.189415 66.772592 38.767211 22.866073 54.330214 44.235761 66.835860 6.631308 42.173502 23.493062 -7.101984 -0.026715 -10.739275 -76.276759 44.036347 -65.753698 -47.803917 40.629449 -62.284181 43.919646 51.156560 4.426833 -2.969600 -10.652254 2.304637 -0.273582 -1.812678 0.111563 1.990260 6.477082 -2.446613 0.019743 0.016408 -0.007327 -3.815832 -10.991234 1.938182 0.316395 0.013011 3.324484 0.738110 4.568515 -0.459350 0.017583 -0.010120 0.009375 
12.283067 5.507837 82.905434 -5.463208 -1.545279 -107.008608 10.432771 -0.453877 -5.038247 4.631935 -0.312902 -2.232077 4.631938 -0.312904 -2.232078 3.472857 -0.251617 -1.671795 -6.688207 -17.399055 17.984812 -6.316934 3.544952 30.901094 6.658648 5.517347 -6.133855 66.414103 38.422703 22.552093 53.708786 44.552726 65.830470 3.162615 42.883715 21.579194 -7.116801 -0.007690 -10.739357 -76.264048 44.132861 -65.688620 -47.812038 40.611834 -62.281824 44.000936 50.947699 4.348465 -2.959899 -10.643648 2.316074 -0.284331 -1.814352 0.162802 1.997648 6.469530 -2.394843 0.010246 0.010222 -0.007442 -3.806215 -11.000648 1.936726 0.308061 -0.012713 3.382077 0.744575 4.605070 -0.404148 0.007833 -0.012999 0.008308 
12.287253 5.493358 82.904175 -5.465353 -1.567301 -107.138996 10.429618 -0.466383 -5.022687 4.630271 -0.319586 -2.222473 4.630271 -0.319586 -2.222475 3.471585 -0.256551 -1.664542 -6.714877 -17.443164 17.970028 -6.378343 3.471104 30.861206 6.733320 5.703780 -6.113287 65.964280 38.003507 22.113567 52.761777 44.696898 64.480223 0.338556 42.487339 19.394578 -7.133032 0.015843 -10.754086 -76.252840 44.225765 -65.629676 -47.822010 40.613838 -62.264592 44.189722 50.851527 4.363760 -2.956998 -10.629634 2.335839 -0.290600 -1.823495 0.223354 2.006911 6.459734 -2.345327 0.002072 0.008280 -0.006497 -3.795455 -11.012589 1.936228 0.302485 -0.037953 3.443704 0.750494 4.635985 -0.346990 -0.003180 -0.009317 0.006268 
12.291300 5.481336 82.902229 -5.481816 -1.590028 -107.271092 10.426195 -0.486738 -4.998840 4.628111 -0.327915 -2.209423 4.628112 -0.327916 -2.209421 3.469942 -0.262693 -1.654688 -6.743636 -17.487268 17.950809 -6.444870 3.398116 30.812496 6.752625 5.763204 -6.165045 65.622880 37.571266 21.661224 51.505077 44.367249 62.959243 -1.684135 41.379308 17.495176 -7.151989 0.038417 -10.780290 -76.254240 44.303759 -65.588114 -47.884933 40.639527 -62.287842 44.517018 50.743975 4.436598 -2.954647 -10.625429 2.370405 -0.291463 -1.847334 0.285562 2.006559 6.474721 -2.316006 -0.005406 -0.006339 -0.008848 -3.799808 -11.036759 1.945733 0.301069 -0.064742 3.505235 0.764162 4.680463 -0.298414 -0.013279 -0.017127 0.006844 
12.294147 5.470883 82.899780 -5.507719 -1.610973 -107.383729 10.431448 -0.509840 -4.976632 4.629101 -0.338110 -2.196985 4.629101 -0.338110 -2.196991 3.470653 -0.270247 -1.645284 -6.786516 -17.525395 17.931659 -6.535848 3.338745 30.759590 6.772107 5.653035 -6.195846 65.346961 37.135721 21.187897 50.556954 43.632140 62.028083 -3.203671 39.807333 15.719933 -7.172260 0.049400 -10.802951 -76.302195 44.353753 -65.594234 -47.933714 40.677858 -62.311372 44.914060 50.489295 4.469972 -2.955212 -10.626797 2.398458 -0.299016 -1.878388 0.350943 2.010229 6.487942 -2.291529 -0.008610 -0.014452 -0.008913 -3.804714 -11.063922 1.951438 0.303387 -0.097932 3.569214 0.775273 4.719107 -0.263204 -0.023672 -0.018413 0.006307 
12.298809 5.462169 82.896950 -5.538220 -1.625596 -107.462050 10.443271 -0.533447 -4.965220 4.632931 -0.348238 -2.189203 4.632930 -0.348237 -2.189205 3.473496 -0.277798 -1.639371 -6.845659 -17.558792 17.917914 -6.653771 3.290549 30.711488 6.813345 5.497317 -6.185402 65.124979 36.649928 20.744668 50.350754 42.862200 62.120181 -3.843402 37.747266 14.110295 -7.185700 0.058097 -10.814070 -76.372962 44.375452 -65.611036 -47.934455 40.705595 -62.306509 45.438800 50.207027 4.578078 -2.956803 -10.642626 2.403547 -0.307708 -1.899178 0.418537 2.009997 6.500567 -2.279227 -0.008456 -0.021331 -0.008329 -3.815466 -11.094333 1.950811 0.311224 -0.126284 3.614388 0.784523 4.751278 -0.230324 -0.031387 -0.018535 0.005173 
12.303815 5.455990 82.894188 -5.567419 -1.634681 -107.500095 10.457221 -0.539802 -4.965626 4.638221 -0.351065 -2.187666 4.638222 -0.351066 -2.187668 3.477453 -0.279927 -1.638196 -6.902649 -17.601958 17.909454 -6.767931 3.223467 30.673215 6.843583 5.469253 -6.190736 65.033189 36.210702 20.347630 50.680895 42.156611 62.897115 -3.061906 35.378345 13.120706 -7.195264 0.034429 -10.826481 -76.462813 44.392941 -65.642735 -47.902763 40.730672 -62.274072 45.925779 50.029531 4.765104 -2.959015 -10.659034 2.405556 -0.311473 -1.926717 0.460079 2.005214 6.517204 -2.287102 -0.006044 -0.024350 -0.008171 -3.822554 -11.120175 1.940594 0.314702 -0.152303 3.637066 0.795950 4.777012 -0.208492 -0.036566 -0.018284 0.004445 
12.310913 5.451980 82.891953 -5.597703 -1.639043 -107.492793 10.474421 -0.541153 -4.981819 4.644993 -0.351708 -2.194106 4.644995 -0.351708 -2.194108 3.482526 -0.280481 -1.643016 -6.947027 -17.646899 17.904241 -6.858485 3.150336 30.645163 6.834371 5.511989 -6.194480 65.158154 35.983960 20.079132 51.222338 41.384447 63.891201 -0.982850 33.284830 13.079306 -7.212367 0.031905 -10.825052 -76.546811 44.399901 -65.673956 -47.917715 40.775352 -62.242681 46.167509 49.865835 4.869245 -2.962856 -10.682433 2.409540 -0.306613 -1.956448 0.477318 1.991661 6.537536 -2.314613 -0.000726 -0.024062 -0.007895 -3.829176 -11.144179 1.922880 0.321077 -0.177167 3.641846 0.803544 4.798424 -0.202764 -0.038088 -0.018481 0.004403 
12.318889 5.451343 82.890396 -5.628023 -1.640046 -107.449346 10.488558 -0.527942 -5.001494 4.651063 -0.346299 -2.203556 4.651063 -0.346299 -2.203560 3.487090 -0.276519 -1.650138 -6.972005 -17.694438 17.896424 -6.915060 3.068967 30.618840 6.814082 5.477731 -6.179916 65.442529 36.050094 19.990862 51.812405 40.504166 64.918476 1.797334 31.912024 13.698126 -7.235380 0.018931 -10.810115 -76.595688 44.358462 -65.686879 -47.929449 40.826353 -62.200743 46.209860 49.711985 4.911750 -2.968719 -10.707697 2.418840 -0.294309 -1.991761 0.474625 1.971654 6.560837 -2.359107 0.006376 -0.020499 -0.008290 -3.833287 -11.168608 1.911489 0.325296 -0.193869 3.626453 0.810860 4.810174 -0.214854 -0.037153 -0.017572 0.005310 
